<svg width="15" height="15" viewBox="0 0 15 15" fill="none" xmlns="http://www.w3.org/2000/svg">
<mask id="mask0_256_502" style="mask-type:alpha" maskUnits="userSpaceOnUse" x="0" y="0" width="15" height="15">
<path fill-rule="evenodd" clip-rule="evenodd" d="M1.21209 1.21209C1.5782 0.845971 2.1718 0.845971 2.53791 1.21209L13.7879 12.4621C14.154 12.8282 14.154 13.4218 13.7879 13.7879C13.4218 14.154 12.8282 14.154 12.4621 13.7879L1.21209 2.53791C0.845971 2.1718 0.845971 1.5782 1.21209 1.21209Z" fill="#006FFD"/>
<path fill-rule="evenodd" clip-rule="evenodd" d="M13.7879 1.21209C13.4218 0.845971 12.8282 0.845971 12.4621 1.21209L1.21209 12.4621C0.845971 12.8282 0.845971 13.4218 1.21209 13.7879C1.5782 14.154 2.1718 14.154 2.53791 13.7879L13.7879 2.53791C14.154 2.1718 14.154 1.5782 13.7879 1.21209Z" fill="#006FFD"/>
</mask>
<g mask="url(#mask0_256_502)">
<rect width="15" height="15" fill="#4E545E"/>
</g>
</svg>
