<?xml version="1.0" encoding="UTF-8"?>
<svg id="Layer_1" xmlns="http://www.w3.org/2000/svg" xmlns:xlink="http://www.w3.org/1999/xlink" version="1.1" viewBox="0 0 20 20">
  <!-- Generator: Adobe Illustrator 30.3.0, SVG Export Plug-In . SVG Version: 2.1.3 Build 182)  -->
  <defs>
    <style>
      .st0 {
        fill: none;
      }

      .st1 {
        fill: #ea4335;
      }

      .st1, .st2, .st3, .st4 {
        fill-rule: evenodd;
      }

      .st2 {
        fill: #34a853;
      }

      .st3 {
        fill: #4285f4;
      }

      .st4 {
        fill: #fbbc05;
      }

      .st5 {
        clip-path: url(#clippath);
      }
    </style>
    <clipPath id="clippath">
      <rect class="st0" x="2.7" y="2.7" width="14.6" height="14.6"/>
    </clipPath>
  </defs>
  <rect class="st0" y="0" width="20" height="20"/>
  <g class="st5">
    <g>
      <path class="st3" d="M17.3,10.17c0-.52-.05-1.01-.14-1.49h-7.02v2.83h4c-.18.92-.7,1.69-1.49,2.2v1.84h2.41c1.41-1.27,2.22-3.14,2.22-5.36h.01Z"/>
      <path class="st2" d="M10.15,17.3c2.01,0,3.7-.66,4.93-1.77l-2.41-1.84c-.67.44-1.52.7-2.52.7-1.94,0-3.59-1.28-4.17-3.01h-2.49v1.89c1.23,2.39,3.74,4.03,6.65,4.03h.01Z"/>
      <path class="st4" d="M5.99,11.39c-.15-.44-.23-.91-.23-1.39s.08-.95.23-1.39v-1.89h-2.49c-.5.98-.79,2.1-.79,3.27s.29,2.29.79,3.27l2.49-1.89Z"/>
      <path class="st1" d="M10.15,5.6c1.09,0,2.08.36,2.85,1.09l2.14-2.1c-1.29-1.18-2.97-1.9-4.98-1.9-2.91,0-5.43,1.64-6.65,4.03l2.49,1.89c.58-1.72,2.23-3.01,4.17-3.01h-.01Z"/>
    </g>
  </g>
</svg>