<?xml version="1.0" encoding="UTF-8"?>
<svg id="Layer_1" xmlns="http://www.w3.org/2000/svg" version="1.1" viewBox="0 0 49.61 49.61">
  <!-- Generator: Adobe Illustrator 30.3.0, SVG Export Plug-In . SVG Version: 2.1.3 Build 182)  -->
  <defs>
    <style>
      .st0 {
        fill: #040504;
      }

      .st1 {
        fill: #fff;
      }

      .st2 {
        fill: #f7b527;
      }
    </style>
  </defs>
  <path class="st2" d="M33.07.88c-2.74-.31-5.56.25-7.82,1.8-2.23,1.54-3.77,3.88-5.93,5.53-2.42,1.84-5.46,2.68-8.07,4.25-3.89,2.34-6.66,6.28-7.97,10.59-1.6,5.27-1.54,11.94,1.51,16.7,3.5,5.46,9.93,8.12,16.21,8.84,13.2,1.51,23.1-4.86,25.43-16.73,1.98-10.05,1.63-24.61-9.19-29.79-1.31-.62-2.73-1.02-4.17-1.19h0Z"/>
  <path class="st1" d="M18.5,33.55c4.03,0,7.29-3.92,7.29-8.75s-3.27-8.75-7.29-8.75-7.29,3.92-7.29,8.75,3.27,8.75,7.29,8.75Z"/>
  <path class="st0" d="M20.37,29.72c1.91,0,3.45-2.13,3.45-4.75s-1.55-4.75-3.45-4.75-3.45,2.13-3.45,4.75,1.55,4.75,3.45,4.75Z"/>
  <path class="st1" d="M31.11,33.55c4.03,0,7.29-3.92,7.29-8.75s-3.27-8.75-7.29-8.75-7.29,3.92-7.29,8.75,3.27,8.75,7.29,8.75Z"/>
  <path class="st0" d="M32.98,29.72c1.91,0,3.45-2.13,3.45-4.75s-1.55-4.75-3.45-4.75-3.45,2.13-3.45,4.75,1.55,4.75,3.45,4.75Z"/>
</svg>