<?xml version="1.0" encoding="UTF-8"?>
<svg id="Layer_1" xmlns="http://www.w3.org/2000/svg" xmlns:xlink="http://www.w3.org/1999/xlink" version="1.1" viewBox="0 0 20 20">
  <!-- Generator: Adobe Illustrator 30.3.0, SVG Export Plug-In . SVG Version: 2.1.3 Build 182)  -->
  <defs>
    <style>
      .st0 {
        fill: none;
      }

      .st1 {
        mask: url(#mask);
      }

      .st2 {
        fill: #f7b527;
      }

      .st3 {
        clip-path: url(#clippath);
      }
    </style>
    <clipPath id="clippath">
      <rect class="st0" x="1" y="1" width="18" height="18"/>
    </clipPath>
    <mask id="mask" x="1" y="1" width="18" height="18" maskUnits="userSpaceOnUse">
      <g id="mask0_182_398">
        <path d="M11.12,10c0,.62-.5,1.12-1.12,1.12s-1.12-.5-1.12-1.12.5-1.12,1.12-1.12,1.12.5,1.12,1.12ZM1,10C1,5.03,5.03,1,10,1s9,4.03,9,9-4.03,9-9,9S1,14.97,1,10ZM12.43,11.78l1.95-5.07c.26-.71-.41-1.35-1.09-1.09l-5.07,1.95c-.3.11-.53.35-.65.65l-1.95,5.07c-.26.68.38,1.35,1.09,1.09l5.07-1.95c.3-.11.53-.35.65-.65h0Z"/>
      </g>
    </mask>
  </defs>
  <g class="st3">
    <g class="st1">
      <rect class="st2" x="1" y="1" width="18" height="18"/>
    </g>
  </g>
</svg>