<svg width="20" height="20" viewBox="0 0 20 20" fill="none" xmlns="http://www.w3.org/2000/svg">
<mask id="mask0_175_469" style="mask-type:alpha" maskUnits="userSpaceOnUse" x="2" y="1" width="16" height="18">
<path d="M14.4998 5.4999C14.4998 7.98512 12.4852 9.99979 9.99999 9.99979C7.5148 9.99979 5.50016 7.98512 5.50016 5.4999C5.50016 3.01467 7.5148 1 9.99999 1C12.4852 1 14.4998 3.01467 14.4998 5.4999Z" fill="#006FFD"/>
<path d="M2.50024 16.0001C2.50024 13.5148 4.51488 11.5002 7.00007 11.5002H12.9998C15.485 11.5002 17.4997 13.5148 17.4997 16.0001V16.75C17.4997 17.9927 16.4923 19 15.2497 19H4.75016C3.50756 19 2.50024 17.9927 2.50024 16.75V16.0001Z" fill="#006FFD"/>
</mask>
<g mask="url(#mask0_175_469)">
<rect x="1.00024" y="0.999146" width="17.9993" height="17.9996" fill="#999999"/>
</g>
</svg>
