<?xml version="1.0" encoding="UTF-8"?>
<svg id="Layer_1" xmlns="http://www.w3.org/2000/svg" version="1.1" viewBox="0 0 20 20">
  <!-- Generator: Adobe Illustrator 30.3.0, SVG Export Plug-In . SVG Version: 2.1.3 Build 182)  -->
  <defs>
    <style>
      .st0 {
        fill: #f7b527;
        stroke: #f7b527;
      }

      .st0, .st1 {
        stroke-linecap: round;
        stroke-linejoin: round;
        stroke-width: 2px;
      }

      .st1 {
        fill: #d4d6dd;
        stroke: #d4d6dd;
      }
    </style>
  </defs>
  <path class="st1" d="M10.82,2.3c-.29-.23-.44-.34-.6-.39-.14-.04-.29-.04-.44,0-.16.04-.31.16-.6.39L3.53,6.7c-.38.29-.57.44-.7.62-.12.16-.21.35-.26.54-.06.22-.06.46-.06.94v6.03c0,.93,0,1.4.18,1.76.16.31.41.57.73.73.36.18.82.18,1.76.18h1.67c.23,0,.35,0,.44-.05.08-.04.14-.1.18-.18.05-.09.05-.21.05-.44v-5.5c0-.47,0-.7.09-.88.08-.16.21-.28.36-.36.18-.09.41-.09.88-.09h2.33c.47,0,.7,0,.88.09.16.08.28.21.36.36.09.18.09.41.09.88v5.5c0,.23,0,.35.05.44.04.08.1.14.18.18.09.05.21.05.44.05h1.67c.93,0,1.4,0,1.76-.18.31-.16.57-.41.73-.73.18-.36.18-.82.18-1.76v-6.03c0-.48,0-.72-.06-.94-.05-.2-.14-.38-.26-.54-.14-.18-.32-.33-.7-.62l-5.65-4.4Z"/>
  <path class="st0" d="M10.82,2.3c-.29-.23-.44-.34-.6-.39-.14-.04-.29-.04-.44,0-.16.04-.31.16-.6.39L3.53,6.7c-.38.29-.57.44-.7.62-.12.16-.21.35-.26.54-.06.22-.06.46-.06.94v6.03c0,.93,0,1.4.18,1.76.16.31.41.57.73.73.36.18.82.18,1.76.18h1.67c.23,0,.35,0,.44-.05.08-.04.14-.1.18-.18.05-.09.05-.21.05-.44v-5.5c0-.47,0-.7.09-.88.08-.16.21-.28.36-.36.18-.09.41-.09.88-.09h2.33c.47,0,.7,0,.88.09.16.08.28.21.36.36.09.18.09.41.09.88v5.5c0,.23,0,.35.05.44.04.08.1.14.18.18.09.05.21.05.44.05h1.67c.93,0,1.4,0,1.76-.18.31-.16.57-.41.73-.73.18-.36.18-.82.18-1.76v-6.03c0-.48,0-.72-.06-.94-.05-.2-.14-.38-.26-.54-.14-.18-.32-.33-.7-.62l-5.65-4.4Z"/>
</svg>