<svg width="20" height="20" viewBox="0 0 20 20" fill="none" xmlns="http://www.w3.org/2000/svg">
<g clip-path="url(#clip0_175_470)">
<mask id="mask0_175_470" style="mask-type:alpha" maskUnits="userSpaceOnUse" x="1" y="1" width="18" height="18">
<path d="M11.125 10C11.125 10.6223 10.6223 11.125 10 11.125C9.37773 11.125 8.875 10.6223 8.875 10C8.875 9.37773 9.37773 8.875 10 8.875C10.6223 8.875 11.125 9.37773 11.125 10ZM1 10C1 5.02891 5.02891 1 10 1C14.9711 1 19 5.02891 19 10C19 14.9711 14.9711 19 10 19C5.02891 19 1 14.9711 1 10ZM12.4293 11.7824L14.3805 6.70937C14.6441 5.9957 13.9727 5.35586 13.2906 5.61953L8.21758 7.5707C7.91875 7.6832 7.6832 7.91875 7.5707 8.21758L5.61953 13.2906C5.35586 13.9727 5.9957 14.6441 6.70937 14.3805L11.7824 12.4293C12.0813 12.3168 12.3168 12.0813 12.4293 11.7824V11.7824Z" fill="black"/>
</mask>
<g mask="url(#mask0_175_470)">
<rect x="1" y="0.999146" width="18" height="18" fill="#999999"/>
</g>
</g>
<defs>
<clipPath id="clip0_175_470">
<rect width="18" height="18" fill="white" transform="translate(1 1)"/>
</clipPath>
</defs>
</svg>
