<?xml version="1.0" encoding="UTF-8"?>
<svg id="Layer_1" xmlns="http://www.w3.org/2000/svg" xmlns:xlink="http://www.w3.org/1999/xlink" version="1.1" viewBox="0 0 20 20">
  <!-- Generator: Adobe Illustrator 30.3.0, SVG Export Plug-In . SVG Version: 2.1.3 Build 182)  -->
  <defs>
    <style>
      .st0 {
        mask: url(#mask);
      }

      .st1 {
        fill: #ff9a00;
      }

      .st2 {
        fill: #006ffd;
      }
    </style>
    <mask id="mask" x="1" y="1" width="18" height="18" maskUnits="userSpaceOnUse">
      <g id="mask0_188_411">
        <path class="st2" d="M10,1.75c4.56,0,8.25,3.69,8.25,8.25s-3.69,8.25-8.25,8.25c-1.33,0-2.65-.32-3.83-.94l-3.54.92c-.12.03-.24.03-.36,0-.12-.03-.23-.09-.31-.18-.09-.09-.15-.19-.18-.31-.03-.12-.03-.24,0-.36l.92-3.54c-.62-1.18-.95-2.5-.94-3.84C1.75,5.44,5.44,1.75,10,1.75Z"/>
      </g>
    </mask>
  </defs>
  <g class="st0">
    <rect class="st1" x="1" y="1" width="18" height="18"/>
  </g>
</svg>