<?xml version="1.0" encoding="UTF-8"?>
<svg id="Layer_1" xmlns="http://www.w3.org/2000/svg" version="1.1" viewBox="0 0 15 15">
  <!-- Generator: Adobe Illustrator 30.3.0, SVG Export Plug-In . SVG Version: 2.1.3 Build 182)  -->
  <defs>
    <style>
      .st0 {
        fill: #181a1c;
      }
    </style>
  </defs>
  <path class="st0" d="M7.5.37c1.49,0,2.91.59,3.96,1.63,1.05,1.04,1.64,2.46,1.64,3.94,0,3.9-3.4,7.13-4.9,8.36-.22.18-.32.27-.49.31-.13.04-.31.04-.43,0-.16-.05-.27-.13-.49-.31-1.5-1.24-4.9-4.46-4.9-8.36,0-1.48.59-2.89,1.64-3.94C4.59.95,6.01.37,7.5.37ZM7.5,4.04c-1.03,0-1.87.84-1.87,1.87,0,1.03.84,1.87,1.87,1.87,1.03,0,1.87-.84,1.87-1.87,0-1.03-.84-1.87-1.87-1.87Z"/>
</svg>